<svg version="1.2" xmlns="http://www.w3.org/2000/svg" viewBox="0 0 1280 1280" width="1280" height="1280"><defs><clipPath clipPathUnits="userSpaceOnUse" id="cp1"><path d="m410 0h460c226.44 0 410 183.56 410 410v460c0 226.44-183.56 410-410 410h-460c-113.98 0-217.1-46.51-291.41-121.59-73.32-74.08-118.59-175.96-118.59-288.41v-460c0-226.44 183.56-410 410-410z"/></clipPath></defs><style>.a{fill:#1f2718}.b{fill:none;stroke:#fff;stroke-miterlimit:100;stroke-width:122}.c{fill:#ebf2e4;stroke:#595d54;stroke-linecap:round;stroke-linejoin:round;stroke-width:115;stroke-dasharray:0,161}</style><g clip-path="url(#cp1)"><path fill-rule="evenodd" class="a" d="m410 0h460c226.4 0 410 183.6 410 410v460c0 226.4-183.6 410-410 410h-460c-114 0-217.1-46.5-291.4-121.6-73.3-74.1-118.6-175.9-118.6-288.4v-460c0-226.4 183.6-410 410-410z"/><path fill-rule="evenodd" class="b" d="m102 1237.3c0 0 87-844.7 304-849.3 217-4.7 195 491 436 484.4 241-6.7 362-792.1 362-792.1"/></g><path fill-rule="evenodd" class="c" d="m844 76v1158"/></svg>